<svg id="aim" fill="#F00" enable-background="new 0 0 300 300" height="32" viewBox="0 0 300 300" width="32" xmlns="http://www.w3.org/2000/svg"><g><path d="m266.831 97.837c-4.497-10.032-16.336-14.569-26.413-10.103-10.066 4.494-14.604 16.343-10.112 26.421 3.998 8.943 6.445 18.279 7.322 27.845h-7.628v-8c0-4.418-3.582-8-8-8s-8 3.582-8 8v8h-8v-8c0-4.418-3.582-8-8-8s-8 3.582-8 8v8h-9.013c-2.901-11.228-11.759-20.087-22.987-22.987v-9.013h8c4.418 0 8-3.582 8-8s-3.582-8-8-8h-8v-8h8c4.418 0 8-3.582 8-8s-3.582-8-8-8h-8v-7.638c17.313 1.543 33.511 8.097 47.255 19.21 3.554 2.855 8.011 4.428 12.55 4.428 6.067 0 11.738-2.703 15.567-7.427 6.921-8.57 5.586-21.187-2.984-28.132-22.7-18.34-51.248-28.441-80.388-28.441s-57.688 10.101-80.396 28.448c-8.562 6.938-9.897 19.555-2.968 28.137 6.922 8.54 19.532 9.879 28.128 2.972 13.727-11.1 29.923-17.651 47.235-19.194v7.637h-8c-4.418 0-8 3.582-8 8s3.582 8 8 8h8v8h-8c-4.418 0-8 3.582-8 8s3.582 8 8 8h8v9.013c-11.228 2.901-20.087 11.759-22.987 22.987h-9.012v-8c0-4.418-3.582-8-8-8s-8 3.582-8 8v8h-8v-8c0-4.418-3.582-8-8-8s-8 3.582-8 8v8h-7.628c.877-9.566 3.325-18.903 7.325-27.853 4.489-10.07-.049-21.919-10.136-26.423-10.056-4.453-21.896.08-26.397 10.123-7.408 16.591-11.164 34.137-11.164 52.153s3.756 35.562 11.169 52.163c3.224 7.191 10.394 11.837 18.269 11.837 2.809 0 5.543-.581 8.145-1.734 10.066-4.494 14.604-16.343 10.112-26.421-3.998-8.943-6.445-18.279-7.322-27.845h7.627v8c0 4.418 3.582 8 8 8s8-3.582 8-8v-8h8v8c0 4.418 3.582 8 8 8s8-3.582 8-8v-8h9.013c2.901 11.228 11.759 20.087 22.987 22.987v9.013h-8c-4.418 0-8 3.582-8 8s3.582 8 8 8h8v8h-8c-4.418 0-8 3.582-8 8s3.582 8 8 8h8v7.638c-17.313-1.543-33.512-8.097-47.259-19.213-8.579-6.887-21.188-5.544-28.113 3.002-6.921 8.57-5.586 21.187 2.984 28.132 22.7 18.34 51.248 28.441 80.388 28.441s57.688-10.101 80.396-28.448c8.562-6.938 9.897-19.555 2.965-28.14-6.914-8.52-19.517-9.862-28.125-2.969-13.727 11.1-29.923 17.651-47.235 19.194v-7.637h8c4.418 0 8-3.582 8-8s-3.582-8-8-8h-8v-8h8c4.418 0 8-3.582 8-8s-3.582-8-8-8h-8v-9.013c11.228-2.901 20.087-11.759 22.987-22.987h9.012v8c0 4.418 3.582 8 8 8s8-3.582 8-8v-8h8v8c0 4.418 3.582 8 8 8s8-3.582 8-8v-8h7.628c-.877 9.566-3.325 18.903-7.325 27.853-4.489 10.07.049 21.919 10.135 26.422 2.582 1.145 5.316 1.726 8.125 1.726 7.874 0 15.045-4.646 18.273-11.848 7.408-16.591 11.164-34.137 11.164-52.153s-3.756-35.562-11.169-52.163zm-182.108-28.737c-1.729 1.389-4.267 1.125-5.647-.579-1.387-1.718-1.117-4.248.594-5.634 19.86-16.049 44.838-24.887 70.33-24.887s50.47 8.838 70.323 24.88c1.719 1.393 1.988 3.923.61 5.629-.768.948-1.908 1.491-3.129 1.491-.643 0-1.603-.156-2.509-.885-18.701-15.122-41.279-23.115-65.295-23.115s-46.594 7.993-65.277 23.1zm-29.639 123.266c.898 2.017-.01 4.39-2.006 5.281-.528.234-1.08.353-1.641.353-1.58 0-3.021-.936-3.664-2.371-6.485-14.525-9.773-29.876-9.773-45.629s3.288-31.104 9.769-45.618c.669-1.492 2.147-2.378 3.684-2.378.539 0 1.086.109 1.606.34 2.016.9 2.924 3.273 2.028 5.282-6.029 13.488-9.087 27.745-9.087 42.374s3.058 28.886 9.084 42.366zm160.183 38.542c1.735-1.392 4.279-1.128 5.658.571 1.387 1.718 1.117 4.248-.594 5.634-19.861 16.049-44.839 24.887-70.331 24.887s-50.47-8.838-70.323-24.88c-1.719-1.393-1.988-3.923-.609-5.631.791-.977 1.957-1.481 3.129-1.481.885 0 1.773.287 2.508.877 18.701 15.122 41.279 23.115 65.295 23.115s46.594-7.993 65.267-23.092zm-65.267-64.908c-8.822 0-16-7.178-16-16s7.178-16 16-16 16 7.178 16 16-7.178 16-16 16zm102.231 29.618c-.648 1.446-2.089 2.382-3.669 2.382-.561 0-1.112-.118-1.621-.344-2.016-.9-2.924-3.273-2.028-5.282 6.029-13.488 9.087-27.745 9.087-42.374s-3.058-28.886-9.084-42.366c-.898-2.017.01-4.39 2.005-5.28.53-.235 1.084-.347 1.63-.347 1.54 0 3.012.884 3.676 2.364 6.485 14.525 9.773 29.876 9.773 45.629s-3.288 31.104-9.769 45.618z"/></g></svg>